<svg id="Layer_1" data-name="Layer 1" xmlns="http://www.w3.org/2000/svg" viewBox="0 0 22 21.46"><defs><style>.cls-1{fill:#bdbdbd;}</style></defs><title>icon-github</title><path class="cls-1" d="M11,0A11,11,0,0,0,7.52,21.44c.55.1.75-.24.75-.53s0-1,0-1.87c-3.06.66-3.71-1.47-3.71-1.47A2.92,2.92,0,0,0,3.33,16c-1-.68.08-.67.08-.67a2.31,2.31,0,0,1,1.69,1.13,2.34,2.34,0,0,0,3.2.91A2.35,2.35,0,0,1,9,15.86c-2.44-.28-5-1.22-5-5.44a4.25,4.25,0,0,1,1.13-3,4,4,0,0,1,.11-2.91s.92-.3,3,1.13a10.41,10.41,0,0,1,5.51,0c2.1-1.42,3-1.13,3-1.13a4,4,0,0,1,.11,2.91,4.25,4.25,0,0,1,1.13,3c0,4.23-2.57,5.16-5,5.43a2.62,2.62,0,0,1,.75,2c0,1.47,0,2.66,0,3s.2.64.76.53A11,11,0,0,0,11,0Z"/></svg>