<svg id="Layer_1" data-name="Layer 1" xmlns="http://www.w3.org/2000/svg" viewBox="0 0 22 17.88"><defs><style>.cls-1{fill:#bdbdbd;}</style></defs><title>icon-twitter</title><path class="cls-1" d="M22,2.12a9,9,0,0,1-2.59.71,4.53,4.53,0,0,0,2-2.5,9,9,0,0,1-2.87,1.09,4.52,4.52,0,0,0-7.69,4.12A12.81,12.81,0,0,1,1.53.83a4.52,4.52,0,0,0,1.4,6,4.5,4.5,0,0,1-2-.56v.06A4.52,4.52,0,0,0,4.5,10.77a4.5,4.5,0,0,1-2,.08A4.52,4.52,0,0,0,6.68,14a9.06,9.06,0,0,1-5.61,1.93A9,9,0,0,1,0,15.85a12.77,12.77,0,0,0,6.92,2A12.76,12.76,0,0,0,19.76,5q0-.29,0-.58A9.18,9.18,0,0,0,22,2.12Z"/></svg>