<svg id="mk-logo" xmlns="http://www.w3.org/2000/svg" viewBox="0 0 138.44 15.93"><defs><style>.cls-1{fill:#4a4a4a;}</style></defs><title>mk-logo</title><path class="cls-1" d="M0,.13H2.16L5,8.43h0L7.94.13h2.18V15.8H7.88V6.27h0L5.61,13H4.49L2.29,6.27h0V15.8H0Z"/><path class="cls-1" d="M12.23.13h6.69V2.24H14.48v4.6h3.87V9H14.48v4.6h4.44V15.8H12.23Z"/><path class="cls-1" d="M20.37.13h2.24V13.55h4.44V15.8H20.37Z"/><path class="cls-1" d="M28.58.13h2.24V15.8H28.58Z"/><path class="cls-1" d="M40.26,4.64H38V4.14a2.39,2.39,0,0,0-.36-1.33,1.34,1.34,0,0,0-1.22-.56,1.47,1.47,0,0,0-.76.18,1.3,1.3,0,0,0-.46.45,1.89,1.89,0,0,0-.23.64,4.25,4.25,0,0,0-.07.76,7.79,7.79,0,0,0,0,.78,1.39,1.39,0,0,0,.17.55A1.26,1.26,0,0,0,35.5,6a3.5,3.5,0,0,0,.69.35L37.91,7a4.26,4.26,0,0,1,1.21.67,2.73,2.73,0,0,1,.72.9,3.82,3.82,0,0,1,.34,1.19,11.89,11.89,0,0,1,.09,1.53,8.07,8.07,0,0,1-.2,1.84,3.88,3.88,0,0,1-.65,1.45,3.12,3.12,0,0,1-1.2,1,4.27,4.27,0,0,1-1.83.35,4,4,0,0,1-1.52-.29,3.62,3.62,0,0,1-2-2,3.65,3.65,0,0,1-.3-1.47v-.84H34.8v.7a1.83,1.83,0,0,0,.36,1.11,1.41,1.41,0,0,0,1.22.5,2,2,0,0,0,.89-.17,1.14,1.14,0,0,0,.48-.46,1.89,1.89,0,0,0,.21-.74q0-.44,0-1a9.5,9.5,0,0,0,0-1,1.61,1.61,0,0,0-.19-.64,1.14,1.14,0,0,0-.4-.4A5.29,5.29,0,0,0,36.72,9l-1.61-.66a3.56,3.56,0,0,1-1.95-1.57,5.41,5.41,0,0,1-.5-2.45,5.7,5.7,0,0,1,.24-1.67,3.91,3.91,0,0,1,.72-1.36,3.41,3.41,0,0,1,1.2-.91A4,4,0,0,1,36.52,0,3.72,3.72,0,0,1,38,.31a3.81,3.81,0,0,1,1.19.81A3.61,3.61,0,0,1,40,2.25a3.28,3.28,0,0,1,.26,1.29Z"/><path class="cls-1" d="M49.19,4.64H46.95V4.14a2.4,2.4,0,0,0-.36-1.33,1.34,1.34,0,0,0-1.22-.56,1.48,1.48,0,0,0-.76.18,1.3,1.3,0,0,0-.46.45,1.88,1.88,0,0,0-.23.64,4.16,4.16,0,0,0-.07.76c0,.31,0,.57,0,.78A1.38,1.38,0,0,0,44,5.6a1.27,1.27,0,0,0,.38.41,3.56,3.56,0,0,0,.69.35L46.84,7A4.24,4.24,0,0,1,48,7.71a2.71,2.71,0,0,1,.71.9A3.78,3.78,0,0,1,49.1,9.8a11.89,11.89,0,0,1,.09,1.53,8.13,8.13,0,0,1-.2,1.84,3.89,3.89,0,0,1-.65,1.45,3.11,3.11,0,0,1-1.2,1,4.27,4.27,0,0,1-1.82.35,4,4,0,0,1-1.52-.29,3.62,3.62,0,0,1-2-2,3.65,3.65,0,0,1-.3-1.47v-.84h2.24v.7a1.84,1.84,0,0,0,.36,1.11,1.42,1.42,0,0,0,1.22.5,2,2,0,0,0,.89-.17,1.14,1.14,0,0,0,.48-.46,2,2,0,0,0,.21-.74c0-.29,0-.62,0-1a9.54,9.54,0,0,0,0-1,1.63,1.63,0,0,0-.19-.64,1.15,1.15,0,0,0-.4-.4A5.3,5.3,0,0,0,45.65,9L44,8.32A3.56,3.56,0,0,1,42.1,6.74a5.41,5.41,0,0,1-.5-2.45,5.7,5.7,0,0,1,.24-1.67,3.91,3.91,0,0,1,.72-1.36,3.4,3.4,0,0,1,1.2-.91A4,4,0,0,1,45.45,0,3.73,3.73,0,0,1,47,.31a3.79,3.79,0,0,1,1.19.81,3.62,3.62,0,0,1,.76,1.13,3.29,3.29,0,0,1,.26,1.29Z"/><path class="cls-1" d="M53.35.13h1.87l3.5,15.66H56.47l-.66-3.37H52.76L52.1,15.8H49.85Zm.95,4.51h0l-1.1,5.68H55.4Z"/><path class="cls-1" d="M63.91.13h2.24V7.28h0L69.48.13h2.24L68.66,6.4l3.63,9.39H69.91l-2.55-7-1.21,2.27V15.8H63.91Z"/><path class="cls-1" d="M75.77.13h1.87l3.5,15.66H78.89l-.66-3.37H75.17l-.66,3.37H72.27Zm.95,4.51h0l-1.1,5.68h2.24Z"/><path class="cls-1" d="M89.5,12.28a3.56,3.56,0,0,1-.29,1.43,3.68,3.68,0,0,1-1.94,1.94,3.62,3.62,0,0,1-2.82,0,3.68,3.68,0,0,1-1.94-1.94,3.56,3.56,0,0,1-.29-1.43V.13h2.24V12.06a1.68,1.68,0,0,0,.4,1.23,1.43,1.43,0,0,0,2,0,1.68,1.68,0,0,0,.4-1.23V.13H89.5Z"/><path class="cls-1" d="M91.61.13H98.3V2.24H93.85V7h3.87V9.11H93.85V15.8H91.61Z"/><path class="cls-1" d="M99.75.13h2.16l2.88,8.29h0L107.69.13h2.18V15.8h-2.24V6.27h0L105.36,13h-1.12L102,6.27h0V15.8H99.75Z"/><path class="cls-1" d="M114.47.13h1.87l3.5,15.66h-2.24l-.66-3.37h-3.06l-.66,3.37H111Zm.95,4.51h0l-1.1,5.68h2.24Z"/><path class="cls-1" d="M120.85.13H123l3.39,9.44h0V.13h2.24V15.8h-2.11l-3.43-9.42h0V15.8h-2.24Z"/><path class="cls-1" d="M130.61.13h2.16l3.39,9.44h0V.13h2.24V15.8h-2.11L132.9,6.38h0V15.8h-2.24Z"/></svg>